<mxfile host="65bd71144e">
    <diagram id="y9KX0m1NL1IBrgn88Sx2" name="ページ1">
        <mxGraphModel dx="406" dy="419" grid="1" gridSize="10" guides="1" tooltips="1" connect="1" arrows="1" fold="1" page="1" pageScale="1" pageWidth="827" pageHeight="1169" math="0" shadow="0">
            <root>
                <mxCell id="0"/>
                <mxCell id="1" parent="0"/>
                <mxCell id="movlG7BSZKz_U1Q-AYU_-2" value="" style="rounded=0;whiteSpace=wrap;html=1;" parent="1" vertex="1">
                    <mxGeometry x="400" y="120" width="300" height="260" as="geometry"/>
                </mxCell>
                <mxCell id="movlG7BSZKz_U1Q-AYU_-1" value="ユーザー" style="shape=umlActor;verticalLabelPosition=bottom;verticalAlign=top;html=1;" parent="1" vertex="1">
                    <mxGeometry x="240" y="210" width="30" height="60" as="geometry"/>
                </mxCell>
                <mxCell id="movlG7BSZKz_U1Q-AYU_-3" value="システム内部" style="text;html=1;align=center;verticalAlign=middle;whiteSpace=wrap;rounded=0;" parent="1" vertex="1">
                    <mxGeometry x="505" y="130" width="90" height="30" as="geometry"/>
                </mxCell>
                <mxCell id="movlG7BSZKz_U1Q-AYU_-4" value="名前を変更する" style="ellipse;whiteSpace=wrap;html=1;" parent="1" vertex="1">
                    <mxGeometry x="480" y="160" width="130" height="50" as="geometry"/>
                </mxCell>
                <mxCell id="movlG7BSZKz_U1Q-AYU_-7" value="時刻に応じた挨拶をする" style="ellipse;whiteSpace=wrap;html=1;" parent="1" vertex="1">
                    <mxGeometry x="485" y="230" width="130" height="50" as="geometry"/>
                </mxCell>
                <mxCell id="movlG7BSZKz_U1Q-AYU_-11" value="" style="endArrow=classic;html=1;rounded=0;entryX=0.267;entryY=0.368;entryDx=0;entryDy=0;entryPerimeter=0;" parent="1" target="movlG7BSZKz_U1Q-AYU_-2" edge="1">
                    <mxGeometry width="50" height="50" relative="1" as="geometry">
                        <mxPoint x="290" y="240" as="sourcePoint"/>
                        <mxPoint x="430" y="240" as="targetPoint"/>
                        <Array as="points"/>
                    </mxGeometry>
                </mxCell>
                <mxCell id="2" value="" style="endArrow=classic;html=1;entryX=0;entryY=0.5;entryDx=0;entryDy=0;" parent="1" target="movlG7BSZKz_U1Q-AYU_-7" edge="1">
                    <mxGeometry width="50" height="50" relative="1" as="geometry">
                        <mxPoint x="290" y="250" as="sourcePoint"/>
                        <mxPoint x="490" y="190" as="targetPoint"/>
                    </mxGeometry>
                </mxCell>
                <mxCell id="3" value="RoboDog" style="text;html=1;align=center;verticalAlign=middle;whiteSpace=wrap;rounded=0;" vertex="1" parent="1">
                    <mxGeometry x="225" y="100" width="60" height="30" as="geometry"/>
                </mxCell>
                <mxCell id="5" value="足し算をする" style="ellipse;whiteSpace=wrap;html=1;" vertex="1" parent="1">
                    <mxGeometry x="490" y="300" width="130" height="50" as="geometry"/>
                </mxCell>
                <mxCell id="8" value="" style="endArrow=classic;html=1;entryX=0.267;entryY=0.769;entryDx=0;entryDy=0;entryPerimeter=0;" edge="1" parent="1" target="movlG7BSZKz_U1Q-AYU_-2">
                    <mxGeometry width="50" height="50" relative="1" as="geometry">
                        <mxPoint x="290" y="260" as="sourcePoint"/>
                        <mxPoint x="330" y="290" as="targetPoint"/>
                    </mxGeometry>
                </mxCell>
            </root>
        </mxGraphModel>
    </diagram>
</mxfile>